<?xml version="1.0" encoding="UTF-8"?>
<svg width="248px" height="68px" viewBox="0 0 248 68" version="1.1" xmlns="http://www.w3.org/2000/svg" xmlns:xlink="http://www.w3.org/1999/xlink">
    <!-- Generator: Sketch 63.1 (92452) - https://sketch.com -->
    <title>Logo/default</title>
    <desc>Created with Sketch.</desc>
    <defs>
        <linearGradient x1="49.9999573%" y1="-20.9321815%" x2="49.9999573%" y2="125.298051%" id="linearGradient-1">
            <stop stop-color="#FEFEFE" offset="0%"></stop>
            <stop stop-color="#FFFFFF" stop-opacity="0" offset="100%"></stop>
        </linearGradient>
        <linearGradient x1="49.9999373%" y1="178.490294%" x2="49.9999373%" y2="68.6626652%" id="linearGradient-2">
            <stop stop-color="#FEFEFE" offset="0%"></stop>
            <stop stop-color="#FFFFFF" stop-opacity="0" offset="100%"></stop>
        </linearGradient>
        <linearGradient x1="50.0000705%" y1="-16.7511086%" x2="50.0000705%" y2="98.5018155%" id="linearGradient-3">
            <stop stop-color="#FEFEFE" offset="0%"></stop>
            <stop stop-color="#FFFFFF" stop-opacity="0" offset="100%"></stop>
        </linearGradient>
    </defs>
    <g id="Trailers-for-Sale" stroke="none" stroke-width="1" fill="none" fill-rule="evenodd">
        <g transform="translate(-100.000000, -879.000000)" id="all">
            <g>
                <g id="Group-31">
                    <g id="Header/default-Copy" transform="translate(0.000000, 855.000000)">
                        <g id="Header">
                            <g transform="translate(100.000000, 24.000000)" id="Logo/default">
                                <g>
                                    <g id="Group-2">
                                        <g id="Logo/single">
                                            <g id="Group-11" transform="translate(0.000000, 0.075709)">
                                                <g id="Group-3" fill="#FEFEFE">
                                                    <path d="M34.9675383,67.7164191 C65.9745521,59.5987905 69.9347779,34.4371719 69.9347779,26.1362434 C69.9347779,17.8334705 67.2811016,9.08917942 60.2861957,0.0121907152 C55.0217917,2.00635634 43.5214153,2.89044668 34.9675383,0.0121907152 C26.4123438,2.89044668 14.9125822,2.00635634 9.64835383,0.0121907152 C2.65283312,9.08917942 -5.26976161e-05,17.8334705 -5.26976161e-05,26.1362434 C-5.26976161e-05,34.4371719 3.96043664,59.5987905 34.9675383,67.7164191" id="Fill-1"></path>
                                                </g>
                                                <path d="M67.2279297,16.726926 C65.8745671,11.5983061 63.382936,6.61574655 59.7114931,1.67411543 C56.5345295,2.6659724 52.1108281,3.24608532 47.5887578,3.24608532 C44.3133375,3.24608532 39.5045922,2.9355207 34.9282434,1.48326223 C30.3521581,2.9355207 25.542798,3.24608532 22.2660602,3.24608532 C17.7446926,3.24608532 13.3216939,2.6659724 10.1437641,1.67411543 C6.47161857,6.61574655 3.98165621,11.5980427 2.62759097,16.726926 L67.2279297,16.726926 Z" id="Fill-4" fill="#EC1D24"></path>
                                                <path d="M1.41140903,26.1362522 C1.41140903,28.5884479 1.82122083,37.2926888 7.0828143,46.3151355 C12.8127139,56.1370928 22.179803,62.8516474 34.9282346,66.2723375 C47.6767541,62.8516474 57.0442823,56.1370928 62.7733915,46.3151355 C68.0350728,37.2930402 68.4441819,28.5887114 68.4441819,26.1362522 C68.4441819,23.3629523 68.1417854,20.6463024 67.5340941,17.9711957 L2.32184818,17.9711957 C1.71468381,20.6460389 1.41140903,23.3629523 1.41140903,26.1362522" id="Fill-6" fill="#0051A4"></path>
                                                <g id="Group-10" transform="translate(6.499373, 3.249686)" fill="url(#linearGradient-1)" opacity="0.5">
                                                    <path d="M41.09,1.73735257 C37.8479548,1.73735257 33.0748683,1.44084065 28.4288708,0.0599874529 C23.7839272,1.44084065 19.0095232,1.73735257 15.7666876,1.73735257 C11.6585571,1.73735257 7.59864492,1.27247177 4.38567127,0.447754078 C2.64340025,2.90442911 1.21459222,5.35267252 0.0784316186,7.82260979 C0.770790464,7.96998745 1.42670013,8.1331744 2.02007528,8.31779172 C7.12366374,9.89757842 10.5018444,8.16979925 17.2524969,8.4861606 C24.0025345,8.80217064 36.5982309,8.5782936 40.0560728,7.63 C44.8942409,6.30342535 50.6718319,6.88090339 56.4957967,7.22238394 C55.4082936,4.9559473 54.0720577,2.7057591 52.4709285,0.447754078 C49.2580427,1.27247177 45.197867,1.73735257 41.09,1.73735257" id="Fill-8"></path>
                                                </g>
                                            </g>
                                            <g id="Group-14" transform="translate(6.587202, 32.836060)" fill="url(#linearGradient-2)" opacity="0.900000036">
                                                <path d="M37.9879548,5.66736512 C37.051606,5.66903388 36.1170138,5.66631117 35.190941,5.66367629 L35.190941,5.66367629 C29.78399,5.64804266 24.6667001,5.63249686 21.1933124,6.46186951 L21.1933124,6.46186951 C16.0512547,7.69033877 12.4607026,8.7182936 6.70700125,9.14321205 L6.70700125,9.14321205 C5.09928482,9.26239649 3.72861982,9.68582183 0.0611292346,8.74587202 L0.0611292346,8.74587202 C0.633952321,10.0438143 1.30048934,11.370389 2.07874529,12.7046048 L2.07874529,12.7046048 C7.49052698,21.983074 16.323877,28.3728356 28.3410414,31.7023588 L28.3410414,31.7023588 C40.3582936,28.3728356 49.1913802,21.983074 54.6034253,12.7046048 L54.6034253,12.7046048 C57.2815182,8.11358846 58.6489335,3.61558344 59.3430489,0.0519949812 L59.3430489,0.0519949812 C52.2604893,5.0112798 44.703212,5.6559473 37.9879548,5.66736512" id="Fill-12" style="mix-blend-mode: screen;"></path>
                                            </g>
                                            <g id="Group-35" transform="translate(2.957746, 5.991202)">
                                                <g id="Group-17" transform="translate(0.204110, 13.758284)" fill="url(#linearGradient-3)" opacity="0.5">
                                                    <path d="M62.8816939,0.0380301129 L0.650200753,0.0380301129 C0.260414053,2.14452949 0.0628858218,4.29959849 0.0628858218,6.46248432 C0.0628858218,8.44646173 0.344818068,14.7106274 3.48647428,21.8324467 C7.15396487,22.7723965 8.52462986,22.3489711 10.1323463,22.2297867 C15.8860477,21.8047804 19.4765119,20.7769134 24.6186575,19.5483563 C28.6870891,18.5769636 35.0106274,18.7647428 41.4132999,18.7539398 C48.1285571,18.742522 55.6858344,18.0978545 62.768394,13.1386575 C63.3826725,9.98479297 63.468921,7.56351317 63.468921,6.46248432 C63.468921,4.30047679 63.2720954,2.14540778 62.8816939,0.0380301129" id="Fill-15" style="mix-blend-mode: screen;"></path>
                                                </g>
                                                <polygon id="Fill-18" fill="#FEFEFE" points="9.77198627 0.767750455 13.1776575 0.767750455 13.1776575 1.57472662 11.9753614 1.57472662 11.9753614 7.707763 10.9739311 7.707763 10.9739311 1.57472662 9.77198627 1.57472662"></polygon>
                                                <path d="M14.8093953,3.88225861 L15.0698094,3.88225861 C15.8615032,3.88225861 15.9715534,3.73769148 15.9715534,2.69981194 C15.9715534,1.67133013 15.9117416,1.57480566 15.2906124,1.57480566 L14.8093953,1.57480566 L14.8093953,3.88225861 Z M13.8079649,0.767741672 L15.3601732,0.767741672 C16.8227956,0.767741672 16.9728959,1.14286087 16.9728959,2.66143051 C16.9728959,3.5935635 16.8424693,3.99749073 16.0214405,4.2376162 L16.0214405,4.25737781 C16.7022937,4.32395246 16.9330214,4.66069023 16.9330214,5.31405284 L16.9330214,6.82331256 C16.9330214,7.07327492 16.9330214,7.41923477 16.9930089,7.70775422 L16.0515659,7.70775422 C15.9516161,7.53490604 15.931591,7.36197003 15.931591,7.08284832 L15.931591,5.51606037 C15.931591,4.86269776 15.8113526,4.68949826 15.1499097,4.68949826 L14.8093953,4.68949826 L14.8093953,7.70775422 L13.8079649,7.70775422 L13.8079649,0.767741672 Z" id="Fill-20" fill="#FEFEFE"></path>
                                                <path d="M19.1261557,5.13160491 L20.397837,5.13160491 L19.777059,1.78662373 L19.7572974,1.78662373 L19.1261557,5.13160491 Z M19.236118,0.767715323 L20.397837,0.767715323 L21.8704718,7.70772787 L20.868778,7.70772787 L20.5385396,5.93884456 L18.9756161,5.93884456 L18.6453777,7.70772787 L17.644123,7.70772787 L19.236118,0.767715323 Z" id="Fill-22" fill="#FEFEFE"></path>
                                                <polygon id="Fill-24" fill="#FEFEFE" points="22.5212874 7.70780692 23.5223664 7.70780692 23.5223664 0.76779437 22.5212874 0.76779437"></polygon>
                                                <polygon id="Fill-26" fill="#FEFEFE" points="24.4338244 0.767750455 25.4353426 0.767750455 25.4353426 6.90008421 27.1180653 6.90008421 27.1180653 7.707763 24.4338244 7.707763"></polygon>
                                                <polygon id="Fill-27" fill="#FEFEFE" points="27.7890114 0.767750455 30.5132146 0.767750455 30.5132146 1.57472662 28.7904417 1.57472662 28.7904417 3.74753716 30.4130892 3.74753716 30.4130892 4.5547768 28.7904417 4.5547768 28.7904417 6.90008421 30.5132146 6.90008421 30.5132146 7.707763 27.7890114 7.707763"></polygon>
                                                <path d="M32.145655,3.88225861 L32.4059813,3.88225861 C33.1973238,3.88225861 33.3069348,3.73769148 33.3069348,2.69981194 C33.3069348,1.67133013 33.2472109,1.57480566 32.6265208,1.57480566 L32.145655,1.57480566 L32.145655,3.88225861 Z M31.1442247,0.767741672 L32.6964329,0.767741672 C34.1590553,0.767741672 34.3088043,1.14286087 34.3088043,2.66143051 C34.3088043,3.5935635 34.1784656,3.99749073 33.3570854,4.2376162 L33.3570854,4.25737781 C34.0384656,4.32395246 34.268842,4.66069023 34.268842,5.31405284 L34.268842,6.82331256 C34.268842,7.07327492 34.268842,7.41923477 34.3292686,7.70775422 L33.3872987,7.70775422 C33.2875245,7.53490604 33.2670603,7.36197003 33.2670603,7.08284832 L33.2670603,5.51606037 C33.2670603,4.86269776 33.1467341,4.68949826 32.4861695,4.68949826 L32.145655,4.68949826 L32.145655,7.70775422 L31.1442247,7.70775422 L31.1442247,0.767741672 Z" id="Fill-28" fill="#FEFEFE"></path>
                                                <path d="M35.1297102,5.69914945 L36.1312284,5.69914945 L36.1312284,6.26600014 C36.1312284,6.72763126 36.311103,7.01571156 36.712044,7.01571156 C37.2429725,7.01571156 37.3734869,6.66966388 37.3734869,6.21795748 C37.3734869,5.63152084 37.3432736,5.43952586 36.3015296,4.44942549 C35.6601996,3.83365384 35.1297102,3.27664004 35.1297102,2.33458232 C35.1297102,1.20017831 35.6804882,0.709739163 36.7722071,0.709739163 C37.3129725,0.709739163 37.7039009,0.882938661 37.9443777,1.09451959 C38.1140641,1.24848446 38.2347416,1.48860993 38.2347416,1.97869776 L38.2347416,2.63232386 L37.293123,2.63232386 L37.293123,2.08461997 C37.293123,1.69052963 37.1226462,1.4598019 36.7321569,1.4598019 C36.321379,1.4598019 36.1312284,1.68095623 36.1312284,2.2193502 C36.1312284,2.68993992 36.2317052,2.97854719 37.1528595,3.90110679 C38.1340013,4.88189726 38.3149298,5.21802022 38.3149298,6.05441921 C38.3149298,7.14051708 37.8740264,7.76559864 36.6820063,7.76559864 C35.7607642,7.76559864 35.1297102,7.39021595 35.1297102,6.5255359 L35.1297102,5.69914945 Z" id="Fill-29" fill="#FEFEFE"></path>
                                                <path d="M40.1473928,3.88225861 L40.6677818,3.88225861 C41.3493376,3.88225861 41.4188984,3.77659989 41.4188984,2.72888345 C41.4188984,1.68099136 41.3493376,1.57480566 40.6677818,1.57480566 L40.1473928,1.57480566 L40.1473928,3.88225861 Z M39.1455233,0.767741672 L40.7981205,0.767741672 C42.1602661,0.767741672 42.4212949,1.12309926 42.4212949,2.72888345 C42.4212949,4.33396501 42.1602661,4.68949826 40.7981205,4.68949826 L40.1473928,4.68949826 L40.1473928,7.70775422 L39.1455233,7.70775422 L39.1455233,0.767741672 Z" id="Fill-30" fill="#FEFEFE"></path>
                                                <polygon id="Fill-31" fill="#FEFEFE" points="43.2418319 0.767750455 44.2433501 0.767750455 44.2433501 6.90008421 45.925985 6.90008421 45.925985 7.707763 43.2418319 7.707763"></polygon>
                                                <path d="M49.962236,6.14121219 C49.962236,6.94845184 49.6314706,7.7656162 48.2696764,7.7656162 C46.8972548,7.7656162 46.5664894,6.94845184 46.5664894,6.14121219 L46.5664894,0.767724106 L47.5680954,0.767724106 L47.5680954,6.30439914 C47.5680954,6.77560365 47.7485848,7.01572913 48.2696764,7.01572913 C48.7804919,7.01572913 48.9604543,6.77560365 48.9604543,6.30439914 L48.9604543,0.767724106 L49.962236,0.767724106 L49.962236,6.14121219 Z" id="Fill-32" fill="#FEFEFE"></path>
                                                <path d="M50.7630816,5.69914945 L51.7647755,5.69914945 L51.7647755,6.26600014 C51.7647755,6.72763126 51.9448257,7.01571156 52.3458545,7.01571156 C52.876256,7.01571156 53.0064191,6.66966388 53.0064191,6.21795748 C53.0064191,5.63152084 52.9762937,5.43952586 51.9352523,4.44942549 C51.2940101,3.83365384 50.7630816,3.27664004 50.7630816,2.33458232 C50.7630816,1.20017831 51.3138595,0.709739163 52.405842,0.709739163 C52.9466952,0.709739163 53.3368332,0.882938661 53.5777491,1.09451959 C53.7476989,1.24848446 53.8678495,1.48860993 53.8678495,1.97869776 L53.8678495,2.63232386 L52.9262309,2.63232386 L52.9262309,2.08461997 C52.9262309,1.69052963 52.756369,1.4598019 52.3649135,1.4598019 C51.9545747,1.4598019 51.7647755,1.68095623 51.7647755,2.2193502 C51.7647755,2.68993992 51.8645496,2.97854719 52.7865823,3.90110679 C53.7681632,4.88189726 53.9480377,5.21802022 53.9480377,6.05441921 C53.9480377,7.14051708 53.5068708,7.76559864 52.3155534,7.76559864 C51.3936964,7.76559864 50.7630816,7.39021595 50.7630816,6.5255359 L50.7630816,5.69914945 Z" id="Fill-33" fill="#FEFEFE"></path>
                                                <path d="M19.6415471,17.662896 L43.9421745,17.662896 C45.0595396,17.662896 45.9881594,17.5266727 46.7281218,17.2544895 L47.4126638,17.2544895 L47.6021996,25.0962461 L46.9412836,25.0962461 C46.5945333,22.7995083 46.0081845,21.3380277 45.1817102,20.7111018 C44.3550603,20.0838245 43.3431782,19.7708885 42.147118,19.7708885 L35.6528395,19.7708885 L35.6528395,46.0828082 C35.6528395,46.9591695 35.7548972,47.7024694 35.9596274,48.3149914 C36.1648846,48.926635 36.5817228,49.4251545 37.2117228,49.8109888 C37.8413715,50.1960328 38.761911,50.3887304 39.9744831,50.3887304 L39.9744831,51.0463088 L23.6090628,51.0463088 L23.6090628,50.3887304 C25.4195772,50.3887304 26.5924505,49.996221 27.1279461,49.2101482 C27.6626513,48.4248659 27.9306186,47.3832097 27.9306186,46.0828082 L27.9306186,19.7708885 L21.4366036,19.7708885 C20.3340816,19.7708885 19.4369925,20.1066601 18.7441945,20.7789939 C18.0511331,21.451152 17.3744078,22.890763 16.7135797,25.0962461 L15.9812585,25.0962461 L16.1703552,17.2544895 L16.8550728,17.2544895 C17.5950352,17.5266727 18.5239185,17.662896 19.6415471,17.662896" id="Fill-34" fill="#FEFEFE"></path>
                                            </g>
                                        </g>
                                        <path d="M186.127691,22 C188.310176,22 189.785253,22.5636267 190.632043,23.2532598 C191.228663,23.7548738 191.57332,24.5383011 191.287471,26.1359037 L190.905857,28.2670741 L187.107206,28.2670741 L187.427025,26.4806772 C187.656626,25.1964972 187.104731,24.4444207 185.528596,24.4444207 C183.872486,24.4444207 182.975337,25.1650602 182.66098,26.9194172 C182.385972,28.4550071 182.621633,29.3949304 185.800618,32.4031501 C189.188462,35.5992166 189.720384,36.6959804 189.232163,39.4223006 C188.596707,42.9631406 186.454765,45 181.646983,45 C177.928821,45 175.60226,43.7781772 176.107466,40.9573737 L176.589627,38.2630073 L180.63051,38.2630073 L180.299168,40.1114169 C180.029708,41.6160005 180.588772,42.5554931 182.205535,42.5554931 C184.346794,42.5554931 185.073663,41.4275507 185.337149,39.9554377 C185.680013,38.0436373 185.67088,37.4171366 182.046778,34.189547 C179.819483,32.1842107 178.003932,30.3662907 178.553436,27.2957138 C179.214925,23.5979471 181.723289,22 186.127691,22 Z M242.738385,22 C244.921553,22 246.396544,22.5636267 247.242139,23.2532598 C247.838845,23.7548738 248.183501,24.5383011 247.898165,26.1359037 L247.51655,28.2670741 L243.718498,28.2670741 L244.037804,26.4806772 C244.268002,25.1964972 243.715425,24.4444207 242.13929,24.4444207 C240.483179,24.4444207 239.586713,25.1650602 239.27176,26.9194172 C238.996666,28.4550071 239.232412,29.3949304 242.411311,32.4031501 C245.799839,35.5992166 246.33048,36.6959804 245.842857,39.4223006 C245.208682,42.9631406 243.065545,45 238.257677,45 C234.5396,45 232.211758,43.7781772 232.717562,40.9573737 L233.199723,38.2630073 L237.240692,38.2630073 L236.909862,40.1114169 C236.640914,41.6160005 237.199381,42.5554931 238.815546,42.5554931 C240.957488,42.5554931 241.684357,41.4275507 241.948526,39.9554377 C242.290195,38.0436373 242.28166,37.4171366 238.656277,34.189547 C236.429579,32.1842107 234.613516,30.3662907 235.163533,27.2957138 C235.825021,23.5979471 238.333982,22 242.738385,22 Z M224.804028,22.1877952 L221.572977,40.236941 C221.297969,41.7720141 221.885029,42.5554415 223.986343,42.5554415 C226.047028,42.5554415 226.915072,41.7720141 227.189483,40.236941 L230.420448,22.1877952 L234.461502,22.1877952 L231.325535,39.7041484 C230.854299,42.3365021 229.044211,44.9999483 223.548992,44.9999483 C218.012377,44.9999483 217.156454,42.3365021 217.627178,39.7041484 L220.763742,22.1877952 L224.804028,22.1877952 Z M102.209794,22.1877952 L101.739241,24.8201489 L96.8896353,24.8201489 L93.3105138,44.8120153 L89.2696309,44.8120153 L92.848923,24.8201489 L88,24.8201489 L88.4712358,22.1877952 L102.209794,22.1877952 Z M109.402468,22.1877952 C115.301835,22.1877952 115.68951,23.4097041 114.802689,28.361075 C114.258732,31.4007317 113.497978,32.7164349 110.043984,33.4999483 L110.033059,33.5629085 C112.740723,33.7817617 113.473737,34.8786116 113.09272,37.0093513 L112.211959,41.9292853 C112.066005,42.7433745 111.864315,43.8716614 111.938145,44.8121015 L108.139495,44.8121015 C107.836576,44.2483886 107.857146,43.6837284 108.019659,42.7752421 L108.934305,37.6674613 C109.315237,35.5367216 108.931233,34.9730087 106.264709,34.9730087 L104.890947,34.9730087 L103.129425,44.8121015 L99.0884567,44.8121015 L103.138472,22.1877952 L109.402468,22.1877952 Z M128.110434,22.1877866 L130.000413,44.8120929 L125.95936,44.8120929 L125.657721,39.0460298 L119.354975,39.0460298 L116.989492,44.8120929 L112.947926,44.8120929 L123.423768,22.1877866 L128.110434,22.1877866 Z M139.10111,22.1877952 L135.050497,44.8121015 L131.009529,44.8121015 L135.060142,22.1877952 L139.10111,22.1877952 Z M145.20279,22.1877952 L141.623412,42.1800923 L148.412673,42.1800923 L147.940754,44.8121015 L137.111208,44.8121015 L141.161822,22.1877952 L145.20279,22.1877952 Z M164.073055,22.1877952 L163.601734,24.8201489 L156.651327,24.8201489 L155.383574,31.9019151 L161.929236,31.9019151 L161.458597,34.5338381 L154.91174,34.5338381 L153.54327,42.1800923 L160.49308,42.1800923 L160.021845,44.8121015 L149.031664,44.8121015 L153.082362,22.1877952 L164.073055,22.1877952 Z M171.265038,22.1877952 C177.164405,22.1877952 177.55208,23.4097041 176.665856,28.361075 C176.12079,31.4007317 175.360547,32.7164349 171.906554,33.4999483 L171.895031,33.5629085 C174.603293,33.7817617 175.336222,34.8786116 174.955204,37.0093513 L174.074529,41.9292853 C173.927892,42.7433745 173.726202,43.8716614 173.801313,44.8121015 L170.003345,44.8121015 C169.699231,44.2483886 169.719887,43.6837284 169.882826,42.7752421 L170.796875,37.6674613 C171.178405,35.5367216 170.7944,34.9730087 168.127279,34.9730087 L166.753432,34.9730087 L164.992592,44.8121015 L160.950344,44.8121015 L165.002237,22.1877952 L171.265038,22.1877952 Z M200.721917,22.1877952 C206.217904,22.1877952 207.061109,23.3471746 206.123417,28.580445 C205.186323,33.8132848 203.928812,34.9730087 198.432228,34.9730087 L195.806333,34.9730087 L194.044213,44.8121015 L190.003843,44.8121015 L194.054456,22.1877952 L200.721917,22.1877952 Z M213.005926,22.1877952 L209.426464,42.1800923 L216.214614,42.1800923 L215.74261,44.8121015 L204.914345,44.8121015 L208.964958,22.1877952 L213.005926,22.1877952 Z M125.010828,25.5097734 L124.930255,25.5097734 L120.431963,36.4136761 L125.563235,36.4136761 L125.010828,25.5097734 Z M108.815538,24.8206664 L106.708717,24.8201489 L105.362183,32.3402244 L106.413139,32.3402244 C109.604841,32.3402244 110.133605,31.8704781 110.739358,28.4860479 C111.326672,25.20968 111.161822,24.8359613 108.815538,24.8206664 Z M170.678106,24.8206664 L168.571372,24.8201489 L167.22535,32.3402244 L168.275708,32.3402244 C171.467326,32.3402244 171.995578,31.8704781 172.602525,28.4860479 C173.188004,25.20968 173.024336,24.8359613 170.678106,24.8206664 Z M199.904356,24.8206897 L197.623591,24.8201489 L196.277569,32.3402244 L198.378883,32.3402244 C201.126662,32.3402244 201.471234,31.9958815 202.083132,28.580445 C202.681349,25.2409071 202.481988,24.8369923 199.904356,24.8206897 Z" id="Fill-3" fill="#FFFFFF"></path>
                                    </g>
                                </g>
                            </g>
                        </g>
                    </g>
                </g>
            </g>
        </g>
    </g>
</svg>