<?xml version="1.0" encoding="UTF-8"?>
<svg width="50px" height="50px" viewBox="0 0 50 50" version="1.1" xmlns="http://www.w3.org/2000/svg" xmlns:xlink="http://www.w3.org/1999/xlink">
    <!-- Generator: Sketch 57.1 (83088) - https://sketch.com -->
    <title>logo-img</title>
    <desc>Created with Sketch.</desc>
    <defs>
        <linearGradient x1="49.9999573%" y1="-20.9321815%" x2="49.9999573%" y2="125.298051%" id="linearGradient-1">
            <stop stop-color="#FEFEFE" offset="0%"></stop>
            <stop stop-color="#FFFFFF" stop-opacity="0" offset="100%"></stop>
        </linearGradient>
        <linearGradient x1="49.9999573%" y1="-20.9321815%" x2="49.9999573%" y2="125.298051%" id="linearGradient-2">
            <stop stop-color="#FEFEFE" offset="0%"></stop>
            <stop stop-color="#FFFFFF" stop-opacity="0" offset="100%"></stop>
        </linearGradient>
        <linearGradient x1="49.9999373%" y1="178.490294%" x2="49.9999373%" y2="68.6626652%" id="linearGradient-3">
            <stop stop-color="#FEFEFE" offset="0%"></stop>
            <stop stop-color="#FFFFFF" stop-opacity="0" offset="100%"></stop>
        </linearGradient>
        <linearGradient x1="49.9999373%" y1="178.490294%" x2="49.9999373%" y2="68.6626652%" id="linearGradient-4">
            <stop stop-color="#FEFEFE" offset="0%"></stop>
            <stop stop-color="#FFFFFF" stop-opacity="0" offset="100%"></stop>
        </linearGradient>
        <linearGradient x1="50.0000705%" y1="-16.7511086%" x2="50.0000705%" y2="98.5018155%" id="linearGradient-5">
            <stop stop-color="#FEFEFE" offset="0%"></stop>
            <stop stop-color="#FFFFFF" stop-opacity="0" offset="100%"></stop>
        </linearGradient>
        <linearGradient x1="50.0000705%" y1="-16.7511086%" x2="50.0000705%" y2="98.5018155%" id="linearGradient-6">
            <stop stop-color="#FEFEFE" offset="0%"></stop>
            <stop stop-color="#FFFFFF" stop-opacity="0" offset="100%"></stop>
        </linearGradient>
    </defs>
    <g id="Page-1" stroke="none" stroke-width="1" fill="none" fill-rule="evenodd">
        <g id="logo-img" fill-rule="nonzero">
            <g id="Group-11" transform="translate(0.000000, 0.054862)">
                <g id="Group-3" fill="#FEFEFE">
                    <path d="M24.9768131,49.0698689 C47.1246801,43.1875293 49.9534128,24.9544724 49.9534128,18.9393068 C49.9534128,12.9228047 48.0579297,6.5863619 43.0615684,0.00883385159 C39.3012798,1.45388141 31.0867252,2.09452658 24.9768131,0.00883385159 C18.8659599,2.09452658 10.6518444,1.45388141 6.89168131,0.00883385159 C1.8948808,6.5863619 -3.76411544e-05,12.9228047 -3.76411544e-05,18.9393068 C-3.76411544e-05,24.9544724 2.82888331,43.1875293 24.9768131,49.0698689" id="Fill-1"></path>
                </g>
                <path d="M48.0199498,12.1209609 C47.0532622,8.40456964 45.2735257,4.79401924 42.6510665,1.21312712 C40.3818068,1.93186406 37.2220201,2.35223574 33.9919699,2.35223574 C31.6523839,2.35223574 28.2175659,2.12718891 24.9487453,1.0748277 C21.6801129,2.12718891 18.2448557,2.35223574 15.9043287,2.35223574 C12.6747804,2.35223574 9.51549564,1.93186406 7.24554579,1.21312712 C4.62258469,4.79401924 2.84404015,8.40437877 1.87685069,12.1209609 L48.0199498,12.1209609 Z" id="Fill-4" fill="#EC1D24"></path>
                <path d="M1.00814931,18.9393132 C1.00814931,20.7162666 1.30087202,27.0236875 5.05915307,33.5616924 C9.1519385,40.6790528 15.8427164,45.544672 24.948739,48.023433 C34.0548244,45.544672 40.7459159,40.6790528 44.8381368,33.5616924 C48.5964806,27.0239422 48.8887014,20.7164575 48.8887014,18.9393132 C48.8887014,16.9296756 48.6727039,14.9610887 48.2386386,13.0226056 L1.65846299,13.0226056 C1.22477415,14.9608978 1.00814931,16.9296756 1.00814931,18.9393132" id="Fill-6" fill="#0051A4"></path>
                <g id="Group-10" opacity="0.5" transform="translate(4.642409, 2.354845)" fill="url(#linearGradient-2)">
                    <path d="M29.35,1.25895114 C27.0342534,1.25895114 23.6249059,1.04408743 20.3063363,0.0434691688 C16.9885194,1.04408743 13.5782309,1.25895114 11.2619197,1.25895114 C8.32754079,1.25895114 5.42760351,0.922080993 3.13262234,0.324459477 C1.88814304,2.10465878 0.867565871,3.8787482 0.0560225847,5.66855782 C0.550564617,5.77535322 1.01907152,5.89360464 1.44291091,6.0273853 C5.08833124,7.17215828 7.50131743,5.92014438 12.3232121,6.14939174 C17.1446675,6.37838452 26.1415935,6.21615478 28.6114806,5.52898551 C32.0673149,4.56769953 36.1941656,4.98616188 40.3541405,5.23361155 C39.5773526,3.59126616 38.6228984,1.960695 37.4792346,0.324459477 C35.1843162,0.922080993 32.2841907,1.25895114 29.35,1.25895114" id="Fill-8"></path>
                </g>
            </g>
            <g id="Group-14" opacity="0.900000036" transform="translate(4.705144, 23.794246)" fill="url(#linearGradient-4)">
                <path d="M27.1342534,4.10678632 C26.4654329,4.10799557 25.797867,4.10602259 25.1363864,4.10411325 L25.1363864,4.10411325 C21.2742786,4.09278454 17.6190715,4.08151946 15.1380803,4.68251414 L15.1380803,4.68251414 C11.4651819,5.57270925 8.90050186,6.31760406 4.79071518,6.62551598 L4.79071518,6.62551598 C3.6423463,6.71188151 2.66329987,7.01871147 0.043663739,6.33758842 L0.043663739,6.33758842 C0.452823086,7.2781263 0.928920957,8.23941232 1.48481806,9.20623536 L1.48481806,9.20623536 C5.35037641,15.9297638 11.6599121,20.5600258 20.243601,22.9727238 L20.243601,22.9727238 C28.8273526,20.5600258 35.1367001,15.9297638 39.0024466,9.20623536 L39.0024466,9.20623536 C40.9153701,5.87941193 41.8920954,2.619988 42.3878921,0.0376775226 L42.3878921,0.0376775226 C37.3289209,3.63136217 31.9308657,4.09851254 27.1342534,4.10678632" id="Fill-12" style="mix-blend-mode: screen;"></path>
            </g>
            <g id="Group-35" transform="translate(2.112676, 4.341451)">
                <g id="Group-17" opacity="0.5" transform="translate(0.145793, 9.969771)" fill="url(#linearGradient-6)">
                    <path d="M44.9154956,0.0275580528 L0.464429109,0.0275580528 C0.186010038,1.55400688 0.0449184441,3.11565108 0.0449184441,4.68295965 C0.0449184441,6.12062444 0.24629862,10.6598749 2.49033877,15.8206136 C5.10997491,16.5017366 6.08902133,16.1949066 7.23739021,16.1085411 C11.3471769,15.8005655 13.9117942,15.0557343 17.5847554,14.1654756 C20.4907779,13.4615678 25.007591,13.5976397 29.5809285,13.5898114 C34.3775408,13.5815377 39.775596,13.1143873 44.8345671,9.5207663 C45.2733375,7.23535722 45.3349436,5.48080664 45.3349436,4.68295965 C45.3349436,3.11628753 45.1943539,1.55464332 44.9154956,0.0275580528" id="Fill-15" style="mix-blend-mode: screen;"></path>
                </g>
                <polygon id="Fill-18" fill="#FEFEFE" points="6.97999019 0.556340909 9.4126125 0.556340909 9.4126125 1.14110625 8.55382957 1.14110625 8.55382957 5.58533551 7.83852221 5.58533551 7.83852221 1.14110625 6.97999019 1.14110625"></polygon>
                <path d="M10.5781395,2.81323088 L10.7641496,2.81323088 C11.3296451,2.81323088 11.4082524,2.70847209 11.4082524,1.95638546 C11.4082524,1.21110879 11.3655297,1.14116352 10.921866,1.14116352 L10.5781395,1.14116352 L10.5781395,2.81323088 Z M9.86283207,0.556334545 L10.9715523,0.556334545 C12.0162826,0.556334545 12.1234971,0.828160051 12.1234971,1.92857283 C12.1234971,2.60403152 12.0303352,2.89673241 11.4438861,3.07073638 L11.4438861,3.08505638 C11.9302098,3.13329888 12.0950153,3.37731176 12.0950153,3.85076293 L12.0950153,4.94442939 C12.0950153,5.12556154 12.0950153,5.37625708 12.1378635,5.58532914 L11.4654042,5.58532914 C11.3940115,5.46007684 11.3797079,5.33476089 11.3797079,5.13249878 L11.3797079,3.9971452 C11.3797079,3.52369403 11.2938233,3.39818714 10.8213641,3.39818714 L10.5781395,3.39818714 L10.5781395,5.58532914 L9.86283207,5.58532914 L9.86283207,0.556334545 Z" id="Fill-20" fill="#FEFEFE"></path>
                <path d="M13.6615398,3.71855428 L14.5698836,3.71855428 L14.1264707,1.29465488 L14.1123553,1.29465488 L13.6615398,3.71855428 Z M13.7400843,0.556315451 L14.5698836,0.556315451 L15.6217656,5.58531005 L14.90627,5.58531005 L14.6703854,4.30351055 L13.5540115,4.30351055 L13.3181269,5.58531005 L12.602945,5.58531005 L13.7400843,0.556315451 Z" id="Fill-22" fill="#FEFEFE"></path>
                <polygon id="Fill-24" fill="#FEFEFE" points="16.0866339 5.58536733 16.8016903 5.58536733 16.8016903 0.556372732 16.0866339 0.556372732"></polygon>
                <polygon id="Fill-26" fill="#FEFEFE" points="17.4527317 0.556340909 18.1681019 0.556340909 18.1681019 5.00006102 19.3700466 5.00006102 19.3700466 5.58533551 17.4527317 5.58533551"></polygon>
                <polygon id="Fill-27" fill="#FEFEFE" points="19.8492939 0.556340909 21.7951533 0.556340909 21.7951533 1.14110625 20.5646012 1.14110625 20.5646012 2.71560664 21.7236351 2.71560664 21.7236351 3.3005629 20.5646012 3.3005629 20.5646012 5.00006102 21.7951533 5.00006102 21.7951533 5.58533551 19.8492939 5.58533551"></polygon>
                <path d="M22.9611821,2.81323088 L23.1471295,2.81323088 C23.7123741,2.81323088 23.7906677,2.70847209 23.7906677,1.95638546 C23.7906677,1.21110879 23.7480078,1.14116352 23.3046577,1.14116352 L22.9611821,1.14116352 L22.9611821,2.81323088 Z M22.2458748,0.556334545 L23.3545949,0.556334545 C24.3993252,0.556334545 24.5062888,0.828160051 24.5062888,1.92857283 C24.5062888,2.60403152 24.4131897,2.89673241 23.8264896,3.07073638 L23.8264896,3.08505638 C24.3131897,3.13329888 24.4777443,3.37731176 24.4777443,3.85076293 L24.4777443,4.94442939 C24.4777443,5.12556154 24.4777443,5.37625708 24.5209061,5.58532914 L23.8480705,5.58532914 C23.7768032,5.46007684 23.7621859,5.33476089 23.7621859,5.13249878 L23.7621859,3.9971452 C23.7621859,3.52369403 23.6762386,3.39818714 23.2044068,3.39818714 L22.9611821,3.39818714 L22.9611821,5.58532914 L22.2458748,5.58532914 L22.2458748,0.556334545 Z" id="Fill-28" fill="#FEFEFE"></path>
                <path d="M25.0926501,4.12981844 L25.8080203,4.12981844 L25.8080203,4.54057981 C25.8080203,4.87509512 25.9365021,5.08384896 26.2228886,5.08384896 C26.6021232,5.08384896 26.6953478,4.83308977 26.6953478,4.50576629 C26.6953478,4.0808122 26.6737669,3.94168541 25.929664,3.22422137 C25.4715711,2.77801003 25.0926501,2.37437684 25.0926501,1.69172632 C25.0926501,0.869694428 25.486063,0.514303741 26.2658622,0.514303741 C26.6521232,0.514303741 26.9313578,0.639810624 27.1031269,0.793130138 C27.2243315,0.904698884 27.3105297,1.07870285 27.3105297,1.43383896 L27.3105297,1.90748106 L26.637945,1.90748106 L26.637945,1.51059418 C26.637945,1.22502147 26.5161759,1.05782746 26.2372549,1.05782746 C25.9438421,1.05782746 25.8080203,1.21808422 25.8080203,1.60822478 C25.8080203,1.94923183 25.8797894,2.15836753 26.5377568,2.82688898 C27.2385724,3.53760671 27.367807,3.78117407 27.367807,4.3872603 C27.367807,5.17428774 27.052876,5.62724539 26.2014331,5.62724539 C25.543403,5.62724539 25.0926501,5.35522895 25.0926501,4.7286492 L25.0926501,4.12981844 Z" id="Fill-29" fill="#FEFEFE"></path>
                <path d="M28.6767091,2.81323088 L29.0484156,2.81323088 C29.5352411,2.81323088 29.5849274,2.73666659 29.5849274,1.97745178 C29.5849274,1.21810968 29.5352411,1.14116352 29.0484156,1.14116352 L28.6767091,1.14116352 L28.6767091,2.81323088 Z M27.9610881,0.556334545 L29.1415146,0.556334545 C30.1144758,0.556334545 30.3009249,0.813840043 30.3009249,1.97745178 C30.3009249,3.14055436 30.1144758,3.39818714 29.1415146,3.39818714 L28.6767091,3.39818714 L28.6767091,5.58532914 L27.9610881,5.58532914 L27.9610881,0.556334545 Z" id="Fill-30" fill="#FEFEFE"></path>
                <polygon id="Fill-31" fill="#FEFEFE" points="30.8870228 0.556340909 31.6023929 0.556340909 31.6023929 5.00006102 32.804275 5.00006102 32.804275 5.58533551 30.8870228 5.58533551"></polygon>
                <path d="M35.6873114,4.45015376 C35.6873114,5.03511003 35.4510504,5.62725812 34.4783403,5.62725812 C33.4980391,5.62725812 33.2617781,5.03511003 33.2617781,4.45015376 L33.2617781,0.556321816 L33.977211,0.556321816 L33.977211,4.56840517 C33.977211,4.90985772 34.106132,5.08386169 34.4783403,5.08386169 C34.8432085,5.08386169 34.9717531,4.90985772 34.9717531,4.56840517 L34.9717531,0.556321816 L35.6873114,0.556321816 L35.6873114,4.45015376 Z" id="Fill-32" fill="#FEFEFE"></path>
                <path d="M36.259344,4.12981844 L36.9748396,4.12981844 L36.9748396,4.54057981 C36.9748396,4.87509512 37.1034469,5.08384896 37.3898961,5.08384896 C37.7687543,5.08384896 37.8617279,4.83308977 37.8617279,4.50576629 C37.8617279,4.0808122 37.8402098,3.94168541 37.0966088,3.22422137 C36.6385786,2.77801003 36.259344,2.37437684 36.259344,1.69172632 C36.259344,0.869694428 36.6527568,0.514303741 37.4327443,0.514303741 C37.819068,0.514303741 38.097738,0.639810624 38.2698208,0.793130138 C38.3912135,0.904698884 38.4770354,1.07870285 38.4770354,1.43383896 L38.4770354,1.90748106 L37.8044506,1.90748106 L37.8044506,1.51059418 C37.8044506,1.22502147 37.6831207,1.05782746 37.4035096,1.05782746 C37.1104105,1.05782746 36.9748396,1.21808422 36.9748396,1.60822478 C36.9748396,1.94923183 37.0461069,2.15836753 37.7047016,2.82688898 C38.4058309,3.53760671 38.5343126,3.78117407 38.5343126,4.3872603 C38.5343126,5.17428774 38.2191934,5.62724539 37.3682524,5.62724539 C36.7097831,5.62724539 36.259344,5.35522895 36.259344,4.7286492 L36.259344,4.12981844 Z" id="Fill-33" fill="#FEFEFE"></path>
                <path d="M14.0296765,12.7992 L31.3872675,12.7992 C32.1853854,12.7992 32.8486853,12.7004875 33.3772299,12.5032533 L33.8661884,12.5032533 L34.0015711,18.1856856 L33.5294883,18.1856856 C33.2818095,16.5213828 32.8629889,15.4623389 32.2726501,15.0080448 C31.6821859,14.553496 30.959413,14.3267308 30.1050843,14.3267308 L25.4663139,14.3267308 L25.4663139,33.3933393 C25.4663139,34.0283837 25.5392123,34.5670068 25.6854481,35.0108633 C25.8320604,35.4540833 26.129802,35.8153293 26.579802,36.0949194 C27.0295511,36.3739368 27.6870793,36.5135728 28.5532022,36.5135728 L28.5532022,36.9900788 L16.8636163,36.9900788 L16.8636163,36.5135728 C18.1568409,36.5135728 18.9946075,36.2291457 19.3771044,35.6595277 C19.7590366,35.0904825 19.9504419,34.3356592 19.9504419,33.3933393 L19.9504419,14.3267308 L15.3118597,14.3267308 C14.524344,14.3267308 13.8835661,14.5700436 13.3887104,15.057242 C12.8936665,15.544313 12.4102913,16.5875094 11.9382712,18.1856856 L11.4151846,18.1856856 L11.5502537,12.5032533 L12.0393377,12.5032533 C12.5678823,12.7004875 13.2313704,12.7992 14.0296765,12.7992" id="Fill-34" fill="#FEFEFE"></path>
            </g>
        </g>
    </g>
</svg>