<svg xmlns="http://www.w3.org/2000/svg" width="41" height="53" viewBox="0 0 41 53"><g><g><path fill="#d0d7e8" d="M25.46 33.063v3.374c0 .15-.055.282-.166.394a.531.531 0 0 1-.39.169h-3.34a.531.531 0 0 1-.389-.169.542.542 0 0 1-.167-.394v-3.374c0-.15.056-.282.167-.394a.531.531 0 0 1 .39-.169h3.339c.148 0 .278.056.39.169a.542.542 0 0 1 .167.394zm4.397-8.438c0 .506-.072.98-.216 1.42-.143.44-.306.8-.486 1.076a4.03 4.03 0 0 1-.766.837 7.08 7.08 0 0 1-.8.612c-.204.126-.487.293-.848.499a2.74 2.74 0 0 0-.953.914c-.256.394-.383.708-.383.942 0 .16-.056.312-.167.457-.111.145-.241.218-.39.218H21.51c-.139 0-.257-.087-.355-.26a1.066 1.066 0 0 1-.146-.527v-.633c0-.778.302-1.512.905-2.201.603-.69 1.266-1.198 1.99-1.526.547-.253.936-.515 1.168-.787.232-.272.348-.628.348-1.07 0-.393-.216-.74-.647-1.04-.431-.3-.93-.45-1.496-.45-.603 0-1.104.136-1.502.408-.325.234-.821.774-1.49 1.617a.539.539 0 0 1-.43.225.66.66 0 0 1-.348-.112l-2.282-1.758a.56.56 0 0 1-.14-.745C18.57 20.247 20.722 19 23.542 19c.742 0 1.488.145 2.24.436.75.29 1.428.68 2.03 1.167a5.819 5.819 0 0 1 1.476 1.793c.38.708.57 1.45.57 2.229zm-16.22-19.17v11.319l-2.727-2.728-2.728 2.728V5.454H5.864L3.137 2.728H30.41l2.728 2.728zm26.01-.02h-4.465V1.36c0-.75-.606-1.359-1.354-1.359H1.353C.606 0 0 .608 0 1.359v44.846c0 .445.214.838.542 1.086l5.577 5.203c.248.308.627.506 1.053.506H41V6.795c0-.75-.606-1.36-1.353-1.36z"/></g></g></svg>