<svg xmlns="http://www.w3.org/2000/svg" width="78" height="55" viewBox="0 0 78 55"><g><g><path fill="#d0d7e8" d="M71.299 26.912a2.805 2.805 0 1 1-2.37-5.085 2.802 2.802 0 0 1 3.726 1.36 2.802 2.802 0 0 1-1.356 3.725zm-9.225 4.505c-3.242-3.204-10.963-11.08-13.845-14.023.806.01 1.436.136 1.782.35a1.332 1.332 0 1 0 1.39-2.275c-2.462-1.504-8.134-.867-13.809 3.274-1.55 1.129-3.177 1.548-4.821 1.233-1.727-.324-2.97-1.337-3.4-1.874.23-.414 1.072-1.235 1.704-1.853 1.066-1.039 2.396-2.33 3.568-3.977 2.993-4.204 6.381-6.095 9.81-5.446 3.447.649 9.334 1.644 11.608 2.027l8.6 18.437c-.25 1.121-.899 3-2.587 4.127zm-.012 5.47c-.574 1.034-2.126 1.918-3.433 1.553-2.635-.754-4.482-2.665-5.272-3.484l-.215-.223a1.33 1.33 0 0 0-1.884.003 1.334 1.334 0 0 0 .003 1.884l.184.187c.854.884 3.118 3.229 6.423 4.18a2.904 2.904 0 0 1-.683 1.534c-.687.795-1.65 1.15-2.27 1.15-.79-.08-3.984-1.954-6.468-3.652a1.328 1.328 0 0 0-1.852.349 1.335 1.335 0 0 0 .348 1.853c1.727 1.177 4.487 2.962 6.436 3.733-1.35 2.032-2.554 2.383-3.663 2.383-1.097 0-4.003-1.628-5.623-2.725a1.332 1.332 0 0 0-1.496 2.204c.564.383 2.816 1.863 4.894 2.66-1.005.988-2.34 1.407-3.928 1.143-.462-.077-1.55-.375-3.842-1.438.857-1.65.711-2.539.641-2.917-.324-1.746-2.053-3.619-4.111-3.619-.34 0-.664.07-.988.167.128-.583.155-1.124.07-1.61-.353-2.035-2.346-4.305-4.632-4.305-.43 0-.852.08-1.259.228-.002-.172.015-.352-.014-.514-.349-1.989-2.686-4.21-5.296-4.21-.402 0-.787.097-1.17.201a3.058 3.058 0 0 0-.026-.775c-.334-1.933-2-3.987-4.426-3.987-.959 0-1.95.317-2.942.937-.472.293-1.092.792-1.743 1.415-.528-.901-.874-2.415-1.039-3.791l7.765-16.663c4.431-1.689 11.068-3.97 12.77-3.88 1.041.055 1.811.12 2.45.227a20.03 20.03 0 0 0-3.31 3.653c-1.03 1.448-2.21 2.594-3.251 3.61-1.72 1.67-3.344 3.252-2.194 5.057.794 1.247 2.855 2.744 5.252 3.197a8.321 8.321 0 0 0 1.545.148c1.847 0 3.668-.625 5.341-1.846 2.157-1.572 4.17-2.487 5.898-2.994.046.07.073.148.133.209.594.605 14.562 14.89 16.376 16.532.782.7.944 1.434.5 2.236zM35.254 51.832c-1.075 1.185-3.265-.288-3.42-.784-.044-.751 1.998-3.156 3.835-4.512.21-.155.407-.235.597-.235.664 0 1.392.881 1.494 1.44.082.432-.52 1.88-2.506 4.091zm-5.593-3.654c-.416.494-.898.736-1.48.736-1.353 0-2.797-1.271-2.966-1.92-.24-.933 2.247-4.183 4.669-6.103.288-.228.554-.34.823-.34.906 0 1.865 1.27 2.008 2.098.128.726-.596 2.608-3.054 5.529zm-6.83-3.798c-.457.548-.997.812-1.644.812-1.535 0-3.063-1.405-3.245-2.11-.261-1.017 2.402-4.526 5.001-6.59.37-.292.76-.435 1.194-.435 1.26 0 2.536 1.23 2.671 2 .23 1.315-2.937 5.086-3.976 6.323zm-7.386-4.836c-1.257 0-2.598-1.19-2.753-1.8-.252-.984 2.431-4.564 4.289-5.715.564-.353 1.082-.532 1.535-.532 1.129 0 1.703 1.194 1.802 1.773.13.747-1.056 2.629-3.519 5.594-.387.462-.816.68-1.354.68zM6.206 26.912a2.805 2.805 0 0 1 2.366-5.085 2.811 2.811 0 0 1 1.359 3.729 2.799 2.799 0 0 1-3.725 1.356zm71.065-1.782L66.203 1.394A2.418 2.418 0 0 0 62.995.226l-6.81 3.175c-.991.46-1.483 1.516-1.33 2.546-2.77-.468-7.135-1.218-9.912-1.74-2.192-.41-4.379-.05-6.462 1.013-1.429-.785-3.1-.923-5.003-1.03-2.061-.12-7.522 1.71-11.312 3.091l.314-.67a2.42 2.42 0 0 0-1.17-3.21L14.5.226a2.42 2.42 0 0 0-3.208 1.168L.224 25.13a2.419 2.419 0 0 0 1.17 3.206l6.81 3.18c.93.433 1.99.208 2.69-.467.282.787.645 1.542 1.136 2.152-1.312 1.7-2.312 3.667-1.92 5.21.455 1.775 2.787 3.754 5.255 3.795-.111.535-.126 1.056 0 1.542.487 1.9 3.139 4.108 5.822 4.108.506 0 .984-.102 1.444-.252.004.017.002.036.007.05.475 1.851 2.947 3.92 5.543 3.92a4.62 4.62 0 0 0 1.04-.124c.011.09.014.181.038.268.429 1.553 2.604 3.282 4.875 3.282 1.209 0 2.279-.482 3.098-1.395a25.34 25.34 0 0 0 1.007-1.204c2.17 1.02 3.836 1.654 4.895 1.829.464.075.92.116 1.363.116 2.511 0 4.667-1.228 6.025-3.422 2.4-.269 4.253-1.811 5.885-4.868 1.049-.324 2.052-.94 2.8-1.801a5.582 5.582 0 0 0 1.351-3.26c1.572-.373 3.037-1.376 3.844-2.826.903-1.628.687-3.35-.444-4.788 1.066-.807 1.788-1.805 2.308-2.79.64 1.005 1.918 1.436 3.025.92l6.81-3.18a2.41 2.41 0 0 0 1.17-3.201z"/></g></g></svg>