<?xml version="1.0" encoding="UTF-8"?>
<svg width="60px" height="56px" viewBox="0 0 60 56" version="1.1" xmlns="http://www.w3.org/2000/svg" xmlns:xlink="http://www.w3.org/1999/xlink">
    <!-- Generator: Sketch 64 (93537) - https://sketch.com -->
    <title>money</title>
    <desc>Created with Sketch.</desc>
    <g id="Trailers-We-Offer" stroke="none" stroke-width="1" fill="none" fill-rule="evenodd">
        <g id="Trailers-We-Offer--&gt;-Clickable" transform="translate(-1059.000000, -5209.000000)" fill="#D0D7E8" fill-rule="nonzero">
            <g id="all">
                <g id="Group-29-Copy-7" transform="translate(0.000000, 5011.000000)">
                    <g id="Group-63" transform="translate(375.000000, 80.000000)">
                        <g id="Group-30">
                            <g id="Group-19">
                                <g id="Group-40" transform="translate(50.000000, 90.000000)">
                                    <g id="Group-13">
                                        <g id="Group-7-Copy-2">
                                            <g id="Group-8-Copy-13" transform="translate(526.000000, 0.000000)">
                                                <g id="Group-11" transform="translate(46.000000, 28.000000)">
                                                    <path d="M122,27 L122,56 L71,56 L71,27 L122,27 Z M113,31 L113,31 L113,31 L80.086616,31 L80.086603,31.0007501 C80.0385327,33.7756566 77.7753229,36 75,36 L75,36 L75,36 L75,47 C77.7614237,47 80,49.2385763 80,52 L80,52 L80,52 L113,52 C113,49.2385763 115.238576,47 118,47 L118,47 L118,47 L118,36 C115.238576,36 113,33.7614237 113,31 Z M97,49 C101.970563,49 106,45.6421356 106,41.5 C106,37.3578644 101.970563,34 97,34 C92.0294373,34 88,37.3578644 88,41.5 C88,45.6421356 92.0294373,49 97,49 Z M112,44 C113.656854,44 115,42.8807119 115,41.5 C115,40.1192881 113.656854,39 112,39 C110.343146,39 109,40.1192881 109,41.5 C109,42.8807119 110.343146,44 112,44 Z M82,39 C83.6568542,39 85,40.1192881 85,41.5 C85,42.8807119 83.6568542,44 82,44 C80.3431458,44 79,42.8807119 79,41.5 C79,40.1192881 80.3431458,39 82,39 Z M106.333648,0.192631645 L120.078629,23.9996808 L110.371,23.9990842 C110.31911,22.2863838 111.151393,20.59987 112.684024,19.6255851 L112.869546,19.5131397 L107.369546,9.98686028 C105.041016,11.3312376 102.080614,10.5897978 100.651865,8.34225543 L100.539419,8.15673326 L73.0993854,23.9992441 L71,24 C69.3431458,24 68,25.3431458 68,27 L67.9998334,35.7965609 L62.1663522,25.6926316 L106.333648,0.192631645 Z M99.7272413,20.75 C100.307903,21.7557362 100.583436,22.8664529 100.584425,23.9989989 L83.7126859,24.0000394 C84.420077,21.9495217 85.972802,20.0308752 88.1830127,18.7548095 C92.4876463,16.2695281 97.6561735,17.1628053 99.7272413,20.75 Z M107.52147,16.25 C108.211826,17.4457316 107.608272,19.0866364 106.173394,19.9150635 C104.738516,20.7434906 103.015673,20.4457316 102.325318,19.25 C101.634962,18.0542684 102.238516,16.4133636 103.673394,15.5849365 C105.108272,14.7565094 106.831114,15.0542684 107.52147,16.25 Z" id="money"></path>
                                                </g>
                                            </g>
                                        </g>
                                    </g>
                                </g>
                            </g>
                        </g>
                    </g>
                </g>
            </g>
        </g>
    </g>
</svg>