<svg xmlns="http://www.w3.org/2000/svg" width="75" height="73" viewBox="0 0 75 73"><g><g><path fill="#fff" d="M70.482 12.063a3.906 3.906 0 0 1-2.693 3.708V5.528a3.908 3.908 0 0 1 2.693 3.71zm-.14 27.855h2.424V29.86h-2.424zm-5.107 0h2.424V26.24h-2.424zm-5.107 0h2.414V29.86h-2.414zm-47.835 0h2.424V29.86h-2.424zm-5.108 0H9.6V26.24H7.185zm-5.107 0h2.414V29.86H2.078zm62.268-21.021h-.635a1.031 1.031 0 0 1-1.03-1.03V3.444c0-.568.463-1.03 1.03-1.03h.635c.567 0 1.029.462 1.029 1.03v14.423c0 .567-.462 1.03-1.03 1.03zm-4.39-7.083h.312v.786a4.391 4.391 0 0 0-.312-.786zm-2.187 2.982c-3.443 5.856-7.49 12.887-11.041 17.786l-.212.292-.6 13.306H28.92l-.6-13.313-.22-.297c-4.165-5.605-7.26-10.283-11.033-16.684a1.96 1.96 0 0 1 .686-2.673c.898-.53 2.147-.198 2.672.688 3.584 6.075 6.308 10.496 9.627 15.118l.362.503h14.04l.357-.545c3.058-4.66 6.054-10.154 9.598-16.162.525-.886 1.778-1.214 2.67-.69a1.96 1.96 0 0 1 .69 2.671zM45.677 68.52c0 .986-.663 1.861-1.542 2.037-1.24.246-2.356-.69-2.36-1.999l-.92-12.61a3.45 3.45 0 0 0-3.438-3.235 3.446 3.446 0 0 0-3.436 3.219l-.926 12.715c0 1.074-.875 1.949-1.949 1.949a1.952 1.952 0 0 1-1.948-1.95l-.001-17.216-.128-2.835h16.779l-.13 2.889v17.036zm-31.11-54.824v-1.88h1.098a4.389 4.389 0 0 0-1.098 1.88zm-2.413 4.172c0 .567-.462 1.03-1.03 1.03h-.635a1.031 1.031 0 0 1-1.029-1.03V3.444c0-.568.462-1.03 1.03-1.03h.635c.567 0 1.029.462 1.029 1.03zm-7.801-5.804V9.238a3.91 3.91 0 0 1 2.703-3.71v10.243a3.908 3.908 0 0 1-2.703-3.708zm33.062 13.326a4.76 4.76 0 0 1 0-9.519 4.764 4.764 0 0 1 4.758 4.76 4.764 4.764 0 0 1-4.758 4.76zm7.172-4.753c0-3.959-3.218-7.179-7.172-7.179-3.951 0-7.166 3.22-7.166 7.179 0 2.861 1.684 5.33 4.108 6.482h-2.703c-3.107-4.373-5.732-8.646-9.151-14.445a4.327 4.327 0 0 0-.671-.859h30.367c-3.382 5.747-6.264 10.985-9.051 15.304h-2.673c2.426-1.152 4.112-3.62 4.112-6.482zM74.834 9.443h-1.938v-.205c0-3.083-2.223-5.647-5.148-6.197C67.547 1.333 66.108 0 64.346 0h-.635a3.446 3.446 0 0 0-3.443 3.443V9.4h-45.7V3.443A3.446 3.446 0 0 0 11.125 0h-.636c-1.76 0-3.2 1.333-3.402 3.041-2.925.55-5.148 3.114-5.148 6.197v.205H0v2.414h1.939v.206c0 3.081 2.223 5.645 5.148 6.195.201 1.708 1.64 3.043 3.402 3.043h.636a3.446 3.446 0 0 0 3.443-3.444v-1.766c.099.348.227.692.418 1.018 3.756 6.37 6.846 11.056 10.955 16.605l.803 17.767v17.155A4.367 4.367 0 0 0 31.106 73c2.406 0 4.363-1.957 4.36-4.274l.923-12.635a1.032 1.032 0 0 1 1.028-.966c.543 0 .995.424 1.03.98l.918 12.532a4.369 4.369 0 0 0 5.24 4.277c2.02-.402 3.486-2.254 3.486-4.403V51.536l.803-17.832c3.449-4.808 7.039-11.022 10.955-17.683.192-.326.32-.67.419-1.018v2.854a3.446 3.446 0 0 0 3.443 3.444h.635c1.762 0 3.201-1.335 3.402-3.043 2.926-.55 5.148-3.114 5.148-6.195v-.206h1.938z"/></g></g></svg>