<svg xmlns="http://www.w3.org/2000/svg" width="66" height="80" viewBox="0 0 66 80"><g><g><path fill="#fff" d="M32.654 65.306a9.547 9.547 0 0 1-1.611-.136V75.46h3.22V65.17a9.543 9.543 0 0 1-1.61.136zm-6.626-2.735L2.735 39.278A9.301 9.301 0 0 1 0 32.653c0-2.509.971-4.861 2.735-6.625L26.028 2.735A9.305 9.305 0 0 1 32.654 0c2.508 0 4.861.971 6.625 2.735l23.292 23.292a9.304 9.304 0 0 1 2.735 6.625c0 2.51-.971 4.863-2.735 6.626L39.279 62.57c-.39.39-.807.74-1.249 1.05v12.467a3.143 3.143 0 0 1-3.14 3.14h-4.475a3.143 3.143 0 0 1-3.14-3.14V63.62a9.411 9.411 0 0 1-1.247-1.05zm6.626-58.803c-1.503 0-2.91.58-3.963 1.632L5.4 28.69a5.562 5.562 0 0 0-1.632 3.962c0 1.503.58 2.91 1.632 3.962l23.292 23.292a5.565 5.565 0 0 0 3.963 1.631c1.502 0 2.909-.58 3.961-1.632l23.291-23.291a5.562 5.562 0 0 0 1.632-3.962c0-1.503-.58-2.91-1.632-3.962L36.615 5.4a5.56 5.56 0 0 0-3.961-1.632zM27.09 28.68c1.671 0 2.557.76 3.489 2.002l2.406 4.251s.527.56.919.56c1.039 0 1.703-.461 1.703-1.703v-9.514l-2.203 2.202a1.702 1.702 0 1 1-2.408-2.408l5.11-5.11a1.698 1.698 0 0 1 2.408 0l5.11 5.11a1.702 1.702 0 1 1-2.408 2.408l-2.203-2.202v9.514c0 2.823-2.115 5.11-4.725 5.11-1.544 0-2.905-.814-3.767-2.054l-2.548-4.275c-.297-.276-.443-.484-.883-.484-.942 0-1.703.761-1.703 1.703v10.22c0 .942-.761 1.703-1.703 1.703a1.702 1.702 0 0 1-1.704-1.703v-10.22a5.108 5.108 0 0 1 5.11-5.11z"/></g></g></svg>