<svg xmlns="http://www.w3.org/2000/svg" width="60" height="60" viewBox="0 0 60 60"><g><g clip-path="url(#clip-BD0BB23E-8F22-426D-BC9F-814BC64302AE)"><path fill="#fff" d="M20.727 25.364c-.272-.41-.272-.819-.136-1.228l2.727-8.181c.137-.546.682-.955 1.227-.955h4.091V1.364C28.636.545 29.182 0 30 0c.818 0 1.364.545 1.364 1.364h6.818c.409 0 .954.272 1.227.545.136.41.273.955 0 1.364l-1.09 2.182 1.09 2.045c.273.41.273.955 0 1.364-.273.409-.818.681-1.227.681h-6.818V15h4.09c.546 0 1.091.41 1.228.955l2.727 8.181c.136.41.136.819-.136 1.228-.273.272-.682.545-1.091.545V30c0 .818-.546 1.364-1.364 1.364-.818 0-1.363-.546-1.363-1.364v-4.09h-10.91V30c0 .818-.545 1.364-1.363 1.364s-1.364-.546-1.364-1.364v-4.09c-.409 0-.818-.274-1.09-.546zM31.364 4.09v2.727H36l-.41-.682a1.892 1.892 0 0 1 0-1.227l.41-.818zm-7.637 19.09h12.546L34.5 17.728h-9zM49.091 45c0-.818.545-1.364 1.364-1.364.818 0 1.363.546 1.363 1.364v1.364c0 .818-.545 1.363-1.363 1.363-.819 0-1.364-.545-1.364-1.363zm-38.182 0v1.364c0 .818-.545 1.363-1.364 1.363-.818 0-1.363-.545-1.363-1.363V45c0-.818.545-1.364 1.363-1.364.819 0 1.364.546 1.364 1.364zm38.182-9.545c0-.819.545-1.364 1.364-1.364.818 0 1.363.545 1.363 1.364v1.363c0 .818-.545 1.364-1.363 1.364-.819 0-1.364-.546-1.364-1.364zm-38.182 1.363c0 .818-.545 1.364-1.364 1.364-.818 0-1.363-.546-1.363-1.364v-1.363c0-.819.545-1.364 1.363-1.364.819 0 1.364.545 1.364 1.364zm38.182-9.545v-1.364c0-.818.545-1.364 1.364-1.364.818 0 1.363.546 1.363 1.364v1.364c0 .818-.545 1.363-1.363 1.363-.819 0-1.364-.545-1.364-1.363zm-38.182 0c0 .818-.545 1.363-1.364 1.363-.818 0-1.363-.545-1.363-1.363v-1.364c0-.818.545-1.364 1.363-1.364.819 0 1.364.546 1.364 1.364zM60 15v5.455c0 .272 0 .409-.136.545l-1.228 2.455v35.181c0 .819-.545 1.364-1.363 1.364H2.727c-.818 0-1.363-.545-1.363-1.364V23.455L.136 21C0 20.864 0 20.727 0 20.455V15c0-.818.545-1.364 1.364-1.364h5.454c.818 0 1.364.546 1.364 1.364 0 .818.545 1.364 1.363 1.364.819 0 1.364-.546 1.364-1.364 0-.818.546-1.364 1.364-1.364h5.454c.818 0 1.364.546 1.364 1.364v5.455c0 .272 0 .409-.136.545l-1.228 2.455v5.181c0 .819-.545 1.364-1.363 1.364-.819 0-1.364-.545-1.364-1.364v-5.454c0-.273 0-.41.136-.546l1.228-2.454v-3.818h-3C12.818 18 11.318 19.09 9.545 19.09c-1.772 0-3.272-1.091-3.818-2.727h-3v3.818l1.228 2.454c.136.137.136.273.136.546v34.09h19.09v-2.727-4.09c0-3.819 3-6.819 6.819-6.819 3.818 0 6.818 3 6.818 6.819v6.818H55.91V23.182c0-.273 0-.41.136-.546l1.228-2.454v-3.818h-3c-.546 1.636-2.046 2.727-3.818 2.727-1.773 0-3.273-1.091-3.819-2.727h-3v3.818l1.228 2.454c.136.137.136.273.136.546v5.454c0 .819-.545 1.364-1.364 1.364-.818 0-1.363-.545-1.363-1.364v-5.181L41.045 21c-.136-.136-.136-.273-.136-.545V15c0-.818.546-1.364 1.364-1.364h5.454c.818 0 1.364.546 1.364 1.364 0 .818.545 1.364 1.364 1.364.818 0 1.363-.546 1.363-1.364 0-.818.546-1.364 1.364-1.364h5.454c.819 0 1.364.546 1.364 1.364zM25.91 53.182h8.18v-1.364h-8.18zm.272-4.091h7.636c-.545-1.636-2.045-2.727-3.818-2.727-1.773 0-3.273 1.09-3.818 2.727zm7.909 8.182v-1.364h-8.182v1.364zm8.182-4.091V35.455h-3.137c-.545 1.636-2.045 2.727-3.818 2.727-1.773 0-3.273-1.091-3.818-2.727h-3.136c-.546 1.636-2.046 2.727-3.819 2.727-1.772 0-3.272-1.091-3.818-2.727h-3v17.727c0 .818-.545 1.363-1.363 1.363-.819 0-1.364-.545-1.364-1.363V34.09c0-.818.545-1.364 1.364-1.364h5.454c.818 0 1.364.546 1.364 1.364 0 .818.545 1.364 1.363 1.364.819 0 1.364-.546 1.364-1.364 0-.818.546-1.364 1.364-1.364h5.454c.818 0 1.364.546 1.364 1.364 0 .818.545 1.364 1.364 1.364.818 0 1.363-.546 1.363-1.364 0-.818.546-1.364 1.364-1.364h5.454c.41 0 .682.137.955.41.273.272.409.545.409.954v19.09c0 .819-.545 1.364-1.364 1.364-.818 0-1.363-.545-1.363-1.363z"/></g></g></svg>