<svg xmlns="http://www.w3.org/2000/svg" width="71" height="41" viewBox="0 0 71 41"><g><g clip-path="url(#clip-BBA56137-CCEF-4426-B36F-567DD21C8C71)" transform="matrix(-1 0 0 1 71 0)"><g><path fill="none" stroke="#fff" stroke-linecap="round" stroke-miterlimit="20" stroke-width="2.5" d="M19.2 38.828h40.034"/></g><g><path fill="none" stroke="#fff" stroke-linecap="round" stroke-miterlimit="20" stroke-width="2.5" d="M12.14 25.878h54.118"/></g><g><path fill="none" stroke="#fff" stroke-linecap="round" stroke-miterlimit="20" stroke-width="2.5" d="M59.24 38.826l8.235-4.706"/></g><g><path fill="none" stroke="#fff" stroke-linecap="round" stroke-miterlimit="20" stroke-width="2.5" d="M67.466 34.115c3.971-2.059 2.353-8.235-1.176-8.235"/></g><g><path fill="none" stroke="#fff" stroke-linecap="round" stroke-miterlimit="20" stroke-width="2.5" d="M19.205 38.826L10.97 34.12"/></g><g><path fill="none" stroke="#fff" stroke-linecap="round" stroke-miterlimit="20" stroke-width="2.5" d="M10.969 34.115c-3.97-2.059-2.353-8.235 1.177-8.235"/></g><g><path fill="none" stroke="#fff" stroke-linecap="round" stroke-miterlimit="20" stroke-width="2.5" d="M27.435 32.358a4.118 4.118 0 1 1-8.235 0 4.118 4.118 0 0 1 8.235 0z"/></g><g><path fill="none" stroke="#fff" stroke-linecap="round" stroke-miterlimit="20" stroke-width="2.5" d="M38.025 32.358a4.118 4.118 0 1 1-8.235 0 4.118 4.118 0 0 1 8.235 0z"/></g><g><path fill="none" stroke="#fff" stroke-linecap="round" stroke-miterlimit="20" stroke-width="2.5" d="M48.615 32.358a4.118 4.118 0 1 1-8.235 0 4.118 4.118 0 0 1 8.235 0z"/></g><g><path fill="none" stroke="#fff" stroke-linecap="round" stroke-miterlimit="20" stroke-width="2.5" d="M59.205 32.358a4.118 4.118 0 1 1-8.235 0 4.118 4.118 0 0 1 8.235 0z"/></g><g><path fill="none" stroke="#fff" stroke-miterlimit="20" stroke-width="2.5" d="M16.846 30.593a2.352 2.352 0 1 1-4.705.001 2.352 2.352 0 0 1 4.705-.001z"/></g><g><path fill="none" stroke="#fff" stroke-miterlimit="20" stroke-width="2.5" d="M66.256 30.593a2.352 2.352 0 1 1-4.705.001 2.352 2.352 0 0 1 4.705-.001z"/></g><g><path fill="none" stroke="#fff" stroke-linecap="round" stroke-miterlimit="20" stroke-width="2.5" d="M19.238 25.88v-3.53"/></g><g><path fill="none" stroke="#fff" stroke-linecap="round" stroke-miterlimit="20" stroke-width="2.5" d="M61.588 25.88v-3.53"/></g><g><path fill="none" stroke="#fff" stroke-linecap="round" stroke-miterlimit="20" stroke-width="2.5" d="M67.472 22.348H61.59"/></g><g><path fill="none" stroke="#fff" stroke-linecap="round" stroke-miterlimit="20" stroke-width="2.5" d="M67.468 17.65v4.706"/></g><g><path fill="none" stroke="#fff" stroke-linecap="round" stroke-miterlimit="20" stroke-width="2.5" d="M67.47 17.648h-3.53"/></g><g><path fill="none" stroke="#fff" stroke-linecap="round" stroke-miterlimit="20" stroke-width="2.5" d="M63.938 14.12v3.53"/></g><g><path fill="none" stroke="#fff" stroke-linecap="round" stroke-miterlimit="20" stroke-width="2.5" d="M51 14.118h12.941"/></g><g><path fill="none" stroke="#fff" stroke-linecap="round" stroke-miterlimit="20" stroke-width="2.5" d="M50.998 17.645V9.41"/></g><g><path fill="none" stroke="#fff" stroke-linecap="round" stroke-miterlimit="20" stroke-width="2.5" d="M46.29 17.648h4.706"/></g><g><path fill="none" stroke="#fff" stroke-linecap="round" stroke-miterlimit="20" stroke-width="2.5" d="M46.298 14.12v3.53"/></g><g><path fill="none" stroke="#fff" stroke-linecap="round" stroke-miterlimit="20" stroke-width="2.5" d="M15.71 14.118h30.588"/></g><g><path fill="none" stroke="#fff" stroke-linecap="round" stroke-miterlimit="20" stroke-width="2.5" d="M15.708 17.65v-3.53"/></g><g><path fill="none" stroke="#fff" stroke-linecap="round" stroke-miterlimit="20" stroke-width="2.5" d="M6.29 17.648h9.412"/></g><g><path fill="none" stroke="#fff" stroke-linecap="round" stroke-miterlimit="20" stroke-width="2.5" d="M19.238 22.348H8.65"/></g><g><path fill="none" stroke="#fff" stroke-linecap="round" stroke-miterlimit="20" stroke-width="2.5" d="M8.65 22.35l-3.53 3.53"/></g><g><path fill="none" stroke="#fff" stroke-linecap="round" stroke-miterlimit="20" stroke-width="2.5" d="M1.59 22.35l3.53 3.53"/></g><g><path fill="none" stroke="#fff" stroke-linecap="round" stroke-miterlimit="20" stroke-width="2.5" d="M6.296 17.65L1.59 22.356"/></g><g><path fill="none" stroke="#fff" stroke-linecap="round" stroke-miterlimit="20" stroke-width="2.5" d="M48.65 3.53l2.353 5.882"/></g><g><path fill="none" stroke="#fff" stroke-linecap="round" stroke-miterlimit="20" stroke-width="2.5" d="M46.29 3.528h2.353"/></g><g><path fill="none" stroke="#fff" stroke-linecap="round" stroke-miterlimit="20" stroke-width="2.5" d="M46.298 1.18v2.353"/></g><g><path fill="none" stroke="#fff" stroke-linecap="round" stroke-miterlimit="20" stroke-width="2.5" d="M36.88 1.178h9.412"/></g><g><path fill="none" stroke="#fff" stroke-linecap="round" stroke-miterlimit="20" stroke-width="2.5" d="M36.878 3.533V1.18"/></g><g><path fill="none" stroke="#fff" stroke-linecap="round" stroke-miterlimit="20" stroke-width="2.5" d="M32.18 3.528h4.706"/></g><g><path fill="none" stroke="#fff" stroke-linecap="round" stroke-miterlimit="20" stroke-width="2.5" d="M26.29 4.706l5.882-1.176"/></g><g><path fill="none" stroke="#fff" stroke-linecap="round" stroke-miterlimit="20" stroke-width="2.5" d="M22.76 4.708h3.53"/></g><g><path fill="none" stroke="#fff" stroke-linecap="round" stroke-miterlimit="20" stroke-width="2.5" d="M22.768 9.416V4.71"/></g><g><path fill="none" stroke="#fff" stroke-linecap="round" stroke-miterlimit="20" stroke-width="2.5" d="M26.29 9.408h-3.53"/></g><g><path fill="none" stroke="#fff" stroke-linecap="round" stroke-miterlimit="20" stroke-width="2.5" d="M26.298 14.116V9.41"/></g><g><path fill="none" stroke="#fff" stroke-linecap="round" stroke-miterlimit="20" stroke-width="2.5" d="M21.588 7.058H7.47"/></g><g><path fill="none" stroke="#fff" stroke-linecap="round" stroke-miterlimit="20" stroke-width="2.5" d="M7.468 5.88v2.353"/></g><g><path fill="none" stroke="#fff" stroke-linecap="round" stroke-miterlimit="20" stroke-width="2.5" d="M1.59 8.238h5.882"/></g><g><path fill="none" stroke="#fff" stroke-linecap="round" stroke-miterlimit="20" stroke-width="2.5" d="M7.472 5.878H1.59"/></g><g><path fill="none" stroke="#fff" stroke-linecap="round" stroke-miterlimit="20" stroke-width="2.5" d="M1.588 8.233V5.88"/></g></g></g></svg>