<svg xmlns="http://www.w3.org/2000/svg" width="66" height="62" viewBox="0 0 66 62"><g><g><path fill="#fff" d="M31.572 33.071v20.715l-.005.223c-.108 2.58-2.092 4.491-4.71 4.491-2.693 0-4.714-2.021-4.714-4.714a1.5 1.5 0 1 0-3 0c0 4.35 3.364 7.714 7.714 7.714 4.35 0 7.715-3.364 7.715-7.714V33.07l-.007-.144a1.5 1.5 0 0 0-2.993.144zM21.273 29.27c-.166-.15-.338-.3-.516-.45-2.545-2.15-5.364-3.462-8.4-3.462-3.125 0-5.97 1.313-8.485 3.468l-.106.092C5.44 16.571 14.862 6.631 27.02 4.117c-3.405 4.726-5.39 13.761-5.748 25.152zm20.587-.114a21.81 21.81 0 0 0-.389-.336c-2.545-2.15-5.363-3.462-8.4-3.462-3.125 0-5.97 1.313-8.485 3.468l-.29.254-.012.01c.54-15.192 4.16-25.589 8.788-25.589 4.608 0 8.25 10.528 8.788 25.655zm20.517-.238l-.106-.092c-2.514-2.155-5.36-3.468-8.485-3.468-3.126 0-5.97 1.313-8.485 3.468l-.29.254-.144.129C44.5 17.89 42.5 8.843 39.09 4.11 51.265 6.614 60.7 16.56 62.377 28.917zM.5 32.864c0 .035.001.069.004.102a1.5 1.5 0 0 0 2.744.937c.101-.151.32-.449.649-.842a16.512 16.512 0 0 1 1.928-1.958c2.016-1.729 4.22-2.746 6.532-2.746 2.22 0 4.412 1.02 6.463 2.753a17.776 17.776 0 0 1 2.561 2.679l.1.138a1.502 1.502 0 0 0 2.492-.04c.078-.115.217-.305.413-.55l.225-.276a16.51 16.51 0 0 1 1.928-1.958c2.017-1.729 4.22-2.746 6.533-2.746 2.22 0 4.411 1.02 6.463 2.753a17.777 17.777 0 0 1 2.56 2.679l.101.138.045.06a1.488 1.488 0 0 0 1.418.567 1.484 1.484 0 0 0 1.028-.666c.079-.116.217-.306.413-.55l.225-.277a16.512 16.512 0 0 1 1.928-1.958c2.017-1.729 4.221-2.746 6.533-2.746 2.312 0 4.516 1.017 6.533 2.746.725.622 1.371 1.29 1.927 1.958.328.393.548.69.649.842a1.5 1.5 0 0 0 2.745-.937c.002-.033.003-.067.003-.102C65.643 15.017 51.059.5 33.072.5 15.084.5.5 15.017.5 32.864z"/></g></g></svg>