<svg xmlns="http://www.w3.org/2000/svg" width="84" height="82" viewBox="0 0 84 82"><g><g><path fill="#fff" d="M48.77 75.606l3.382.906 3.312-12.364-3.38-.906zm-36.46-7.05l3.38.906 1.45-5.41-3.381-.905zm11.068 6.278l3.38.905 3.106-11.59-3.38-.907zm11.765 6.263l3.38.906 4.763-17.773-3.381-.906zm17.88-27.247l-18.685-.023-18.407-.05c-.01.007-.56.024-.328.123l-.24-.102-.258-.029C8.588 53.047 3.75 47.743 3.75 41.33c0-6.054 4.583-11.333 10.686-12.345l1.49-.247L15.9 27.2v-.14c0-7.55 6.292-13.71 14.042-13.71 3.051 0 5.934.95 8.29 2.63l.054.039a13.764 13.764 0 0 1 4.088 4.657l.845 1.574 1.556-.878a6.906 6.906 0 0 1 3.389-.887c3.73 0 6.754 2.96 6.754 6.574 0 .123-.003.237-.01.346l-.082 1.447 1.406.351a12.84 12.84 0 0 1 6.097 3.49 12.355 12.355 0 0 1 3.522 8.637c0 6.894-5.748 12.52-12.828 12.52zm-10.07-38.348l.41-.068-.027-1.509v-.12c0-5.538 4.568-10.055 10.19-10.055 3.813 0 7.263 2.065 9.02 5.37l.846 1.59 1.566-.89a4.744 4.744 0 0 1 2.346-.621c2.582 0 4.68 2.073 4.68 4.606l-.002.125-.087 1.56 1.401.353c4.095 1.032 6.954 4.663 6.954 8.86l-.004.264c-.142 4.917-4.242 8.883-9.268 8.883h-3.505l-.148-.27-.022-.04a15.998 15.998 0 0 0-2.588-3.412 16.265 16.265 0 0 0-5.982-3.815l-.038-.013a16.28 16.28 0 0 0-.14-.05l-.061-.021-.116-.041-.022-.226c-.558-5.048-4.923-8.977-10.193-8.977l-.384.007c-1.022.038-2.029.226-2.989.554l-.181.065-.087-.132a17.213 17.213 0 0 0-1.57-1.977zM29.611 9.853c-8.964.162-16.316 6.955-17.138 15.594l-.032.385-.237.064C5.273 27.8.25 34.109.25 41.33l.003.336c.162 7.836 5.968 14.309 13.791 15.493l.243.034-.01.008c-.07.046-.288.05.21.057l3.324.028 16.521.041 18.689.023c8.998 0 16.329-7.176 16.329-16.02l-.004-.345a15.816 15.816 0 0 0-.502-3.635h2.134c7.04 0 12.772-5.667 12.772-12.647l-.004-.31c-.125-5.16-3.372-9.655-8.125-11.479l-.195-.073-.002-.015c-.49-4.014-3.947-7.127-8.12-7.127l-.33.006a8.25 8.25 0 0 0-1.94.312l-.244.075-.024-.035C62.233 2.444 58.063.25 53.526.25l-.314.003c-6.88.154-12.528 5.358-13.29 12.016l-.029.281-.337.102a17.782 17.782 0 0 0-9.615-2.802z"/></g></g></svg>