<?xml version="1.0"?>
<svg xmlns="http://www.w3.org/2000/svg" xmlns:xlink="http://www.w3.org/1999/xlink" version="1.1" viewBox="0 0 512 512" enable-background="new 0 0 512 512" width="512px" height="512px"><g><g>
    <g>
      <path d="m480.6,339.4h-69c5.2-10.2 8.2-21.7 8.2-33.9v-163.7c0-41.2-33.5-74.7-74.7-74.7h-259.4c-41.2,0-74.7,33.5-74.7,74.7v163.6c0,36.4 26.1,66.7 60.6,73.3 9.7-36.4 42.8-63.3 82.2-63.3 39.9,0 73.3,27.6 82.5,64.7h244.3c11.3,0 20.4-9.1 20.4-20.4 0-11.2-9.1-20.3-20.4-20.3zm-326.7-132.8h-19.3c-11.3,0-20.4-9.1-20.4-20.4 0-11.3 9.1-20.4 20.4-20.4h19.3c11.3,0 20.4,9.1 20.4,20.4 0,11.3-9.2,20.4-20.4,20.4zm142.3,0h-19.3c-11.3,0-20.4-9.1-20.4-20.4 0-11.3 9.1-20.4 20.4-20.4h19.3c11.3,0 20.4,9.1 20.4,20.4 0.1,11.3-9.1,20.4-20.4,20.4z" data-original="#000000" class="active-path" data-old_color="#000000" fill="#264D80"/>
      <circle cx="153.7" cy="400.6" r="44" data-original="#000000" class="active-path" data-old_color="#000000" fill="#264D80"/>
    </g>
  </g></g> </svg>
